<?xml version="1.0" standalone="no"?>
<!DOCTYPE svg PUBLIC "-//W3C//DTD SVG 20010904//EN"
 "http://www.w3.org/TR/2001/REC-SVG-20010904/DTD/svg10.dtd">
<svg version="1.0" xmlns="http://www.w3.org/2000/svg"
 width="397.000000pt" height="397.000000pt" viewBox="0 0 397.000000 397.000000"
 preserveAspectRatio="xMidYMid meet">

<g transform="translate(0.000000,397.000000) scale(0.100000,-0.100000)"
fill="#000000" stroke="none">
<path d="M348 3600 c-65 -17 -158 -70 -204 -116 -91 -94 -138 -255 -116 -390
24 -146 111 -266 237 -328 72 -35 125 -45 230 -46 145 0 251 38 328 117 l27
29 -79 78 -80 79 -30 -26 c-44 -37 -93 -50 -175 -45 -61 3 -79 8 -110 32 -34
26 -76 80 -76 99 0 4 136 7 301 7 l302 0 -6 98 c-6 114 -25 177 -76 252 -40
59 -135 131 -199 151 -48 15 -227 21 -274 9z m203 -223 c39 -26 79 -81 79
-108 0 -18 -11 -19 -165 -19 -96 0 -165 4 -165 9 0 21 22 67 43 90 50 54 149
68 208 28z"/>
<path d="M1365 3590 c-28 -11 -64 -33 -82 -49 -35 -31 -43 -26 -43 30 l0 29
-125 0 -125 0 0 -435 0 -435 134 0 134 0 4 263 c3 214 7 269 20 299 20 44 54
68 105 74 44 6 78 -10 107 -49 20 -27 21 -44 26 -305 l5 -277 138 -3 137 -3 0
248 c0 148 5 264 11 287 31 114 173 141 226 44 16 -29 18 -66 21 -306 l3 -273
137 3 137 3 0 295 c-1 275 -2 300 -22 365 -27 85 -75 145 -147 183 -46 24 -62
27 -151 27 -115 0 -164 -17 -234 -81 l-42 -37 -36 37 c-58 60 -106 79 -203 83
-67 2 -96 -1 -135 -17z"/>
<path d="M3709 2849 c-48 -28 -69 -66 -69 -126 0 -93 59 -147 162 -147 62 -1
93 16 132 68 30 40 28 121 -3 165 -44 62 -151 81 -222 40z"/>
<path d="M300 2474 c-188 -51 -304 -242 -271 -448 31 -191 160 -313 342 -324
93 -5 153 9 209 49 l40 29 0 -42 c-1 -61 -31 -121 -74 -147 -74 -46 -210 -37
-326 21 -34 16 -63 29 -64 27 -17 -18 -86 -174 -82 -184 7 -20 123 -72 197
-90 131 -30 321 -15 417 34 87 45 160 151 181 265 7 37 11 205 11 433 l0 373
-120 0 -120 0 0 -42 0 -41 -22 19 c-40 35 -76 54 -135 69 -70 18 -112 18 -183
-1z m247 -230 c51 -38 67 -70 71 -142 3 -57 0 -72 -20 -101 -36 -53 -71 -74
-132 -79 -105 -9 -180 63 -180 173 -1 108 76 181 182 172 32 -2 63 -12 79 -23z"/>
<path d="M2121 2479 c-106 -21 -221 -71 -221 -96 0 -7 18 -49 39 -92 l40 -78
60 29 c71 34 170 47 224 29 43 -14 87 -63 87 -95 0 -23 -3 -23 -132 -29 -148
-6 -213 -21 -275 -66 -94 -68 -110 -223 -34 -328 86 -119 319 -138 432 -36
l39 35 0 -46 0 -47 118 3 117 3 0 280 c0 248 -2 286 -19 334 -21 62 -71 122
-132 157 -78 46 -232 65 -343 43z m229 -521 c0 -60 -29 -102 -83 -123 -62 -24
-121 -8 -144 39 -37 78 20 126 150 126 l77 0 0 -42z"/>
<path d="M3125 2481 c-44 -11 -101 -40 -121 -62 -25 -28 -34 -24 -34 16 l0 35
-120 0 -120 0 0 -550 0 -550 130 0 130 0 0 181 0 180 33 -24 c54 -40 97 -52
187 -52 101 1 171 28 244 95 149 137 168 417 40 592 -78 108 -241 170 -369
139z m92 -232 c64 -31 95 -89 95 -178 0 -49 -6 -80 -21 -109 -58 -113 -216
-115 -279 -4 -60 107 -25 249 72 293 53 24 80 24 133 -2z"/>
<path d="M990 2198 c0 -309 7 -352 69 -434 25 -33 56 -58 96 -79 52 -27 68
-30 144 -29 96 0 137 14 193 63 20 17 38 31 42 31 3 0 6 -20 6 -45 l0 -45 120
0 120 0 0 405 0 405 -130 0 -130 0 0 -217 c0 -236 -6 -277 -49 -325 -35 -39
-109 -50 -160 -23 -58 30 -65 61 -69 328 l-4 237 -124 0 -124 0 0 -272z"/>
<path d="M3669 2403 c-1 -38 -1 -219 -1 -403 l0 -335 129 0 128 0 3 403 2 402
-130 0 -130 0 -1 -67z"/>
<path d="M350 1136 c-82 -17 -149 -54 -208 -113 -163 -162 -159 -438 9 -598
69 -66 143 -101 240 -115 178 -25 348 52 418 189 l21 40 -107 51 c-77 36 -109
47 -112 38 -10 -30 -79 -87 -114 -93 -116 -22 -206 64 -207 195 0 110 67 190
161 190 73 0 105 -17 154 -85 14 -20 16 -19 117 34 57 30 105 55 106 57 9 6
-71 114 -101 137 -102 77 -237 104 -377 73z"/>
<path d="M1201 1139 c-71 -14 -167 -64 -216 -114 -26 -25 -61 -76 -78 -113
-30 -64 -32 -73 -32 -187 0 -116 1 -123 33 -187 60 -123 177 -206 323 -227
246 -38 462 114 498 348 14 86 -1 187 -39 266 -77 162 -287 254 -489 214z
m191 -244 c49 -37 73 -92 73 -171 0 -60 -4 -76 -27 -112 -53 -80 -128 -101
-208 -60 -124 63 -130 285 -10 350 45 25 134 21 172 -7z"/>
<path d="M2235 1144 c-60 -16 -90 -29 -130 -60 l-45 -34 0 40 0 40 -120 0
-120 0 0 -405 0 -405 130 0 130 0 0 239 c0 145 4 251 11 268 27 73 96 107 162
80 66 -28 71 -49 75 -334 l4 -253 129 0 129 0 0 240 c0 258 7 303 53 333 57
37 131 27 164 -21 16 -24 19 -57 23 -287 l5 -260 133 -3 134 -3 -4 288 c-4
237 -7 297 -21 340 -25 76 -73 133 -142 168 -52 27 -68 30 -144 29 -100 -1
-156 -22 -221 -80 l-41 -37 -33 37 c-19 20 -54 45 -79 56 -45 20 -145 33 -182
24z"/>
</g>
</svg>
