<?xml version="1.0" standalone="no"?>
<!DOCTYPE svg PUBLIC "-//W3C//DTD SVG 20010904//EN"
 "http://www.w3.org/TR/2001/REC-SVG-20010904/DTD/svg10.dtd">
<svg version="1.0" xmlns="http://www.w3.org/2000/svg"
 width="484.000000pt" height="582.000000pt" viewBox="0 0 484.000000 582.000000"
 preserveAspectRatio="xMidYMid meet">

<g transform="translate(0.000000,582.000000) scale(0.100000,-0.100000)"
fill="#000000" stroke="none">
<path d="M2250 5400 c-287 -28 -600 -129 -839 -272 -542 -325 -897 -867 -992
-1513 -20 -138 -18 -466 5 -600 79 -478 287 -874 629 -1201 281 -269 648 -453
1047 -526 140 -26 475 -31 605 -10 358 59 690 207 965 429 98 80 270 257 346
358 197 260 335 571 395 890 27 140 37 464 20 616 -29 253 -97 478 -213 714
-297 598 -850 1000 -1513 1100 -130 19 -335 26 -455 15z m-427 -1246 c151 -39
315 -167 385 -301 52 -99 82 -234 82 -369 l0 -114 -470 0 -469 0 15 -42 c22
-64 58 -113 108 -147 130 -89 350 -75 469 30 l46 40 74 -78 c40 -43 91 -98
113 -122 l39 -43 -60 -56 c-221 -205 -645 -228 -912 -49 -98 65 -166 143 -218
252 -59 123 -70 176 -70 335 0 113 4 147 24 210 36 117 87 206 162 279 104
104 230 169 371 190 82 13 232 6 311 -15z m1267 15 c84 -13 177 -56 234 -109
l46 -43 0 67 0 66 148 1 c81 1 165 2 187 3 l40 1 0 -635 c0 -580 -2 -642 -18
-715 -55 -238 -204 -392 -444 -457 -101 -27 -358 -30 -468 -5 -135 30 -270 87
-344 146 l-24 18 73 144 c40 79 74 146 76 148 1 2 16 -6 33 -18 110 -79 287
-128 426 -118 198 15 290 102 302 287 l6 81 -66 -49 c-82 -63 -159 -92 -262
-99 -117 -8 -210 11 -316 63 -271 136 -398 461 -307 788 83 301 369 485 678
435z"/>
<path d="M1502 3834 c-28 -14 -66 -43 -83 -65 -28 -36 -69 -124 -69 -149 0 -6
100 -10 275 -10 l275 0 0 23 c0 40 -58 143 -97 173 -52 39 -98 53 -179 54 -56
0 -80 -5 -122 -26z"/>
<path d="M2962 3817 c-51 -16 -126 -89 -153 -149 -33 -75 -34 -201 -1 -273 50
-110 138 -165 262 -165 92 0 157 27 212 88 57 63 71 104 72 207 1 74 -3 99
-22 140 -51 110 -139 165 -262 164 -41 -1 -90 -6 -108 -12z"/>
</g>
</svg>
